<svg width="159" height="19" viewBox="0 0 159 19" fill="none" xmlns="http://www.w3.org/2000/svg">
<path d="M3.5 3.01H0.19V0.799999H9.3V3.01H6V14H3.5V3.01ZM11.2866 10.46C11.3066 10.8333 11.4066 11.1667 11.5866 11.46C11.7666 11.7533 12.0266 11.9833 12.3666 12.15C12.7132 12.3167 13.1266 12.4 13.6066 12.4C14.0399 12.4 14.4199 12.3467 14.7466 12.24C15.0799 12.1333 15.3599 12.0033 15.5866 11.85C15.8199 11.69 15.9932 11.5367 16.1066 11.39L17.1566 12.95C16.9699 13.1833 16.7199 13.4 16.4066 13.6C16.0999 13.7933 15.7066 13.9467 15.2266 14.06C14.7532 14.18 14.1599 14.24 13.4466 14.24C12.5466 14.24 11.7566 14.0633 11.0766 13.71C10.3966 13.3567 9.86656 12.8467 9.48656 12.18C9.10656 11.5133 8.91656 10.72 8.91656 9.8C8.91656 9 9.08656 8.28 9.42656 7.64C9.76656 6.99333 10.2599 6.48333 10.9066 6.11C11.5599 5.73667 12.3432 5.55 13.2566 5.55C14.1166 5.55 14.8599 5.71667 15.4866 6.05C16.1199 6.37667 16.6099 6.85667 16.9566 7.49C17.3032 8.12333 17.4766 8.89667 17.4766 9.81C17.4766 9.86333 17.4732 9.97333 17.4666 10.14C17.4666 10.3 17.4599 10.4067 17.4466 10.46H11.2866ZM15.0966 8.89C15.0899 8.67667 15.0232 8.44667 14.8966 8.2C14.7766 7.95333 14.5866 7.74333 14.3266 7.57C14.0666 7.39667 13.7199 7.31 13.2866 7.31C12.8532 7.31 12.4966 7.39333 12.2166 7.56C11.9432 7.72667 11.7366 7.93333 11.5966 8.18C11.4566 8.42 11.3766 8.65667 11.3566 8.89H15.0966ZM23.4117 12.22C23.8451 12.22 24.1984 12.1467 24.4717 12C24.7451 11.8533 24.9251 11.7433 25.0117 11.67L26.1917 13.42C26.0984 13.4933 25.9251 13.5967 25.6717 13.73C25.4184 13.8633 25.0951 13.98 24.7017 14.08C24.3151 14.1867 23.8717 14.24 23.3717 14.24C22.5051 14.24 21.7284 14.0667 21.0417 13.72C20.3551 13.3667 19.8117 12.8667 19.4117 12.22C19.0184 11.5667 18.8217 10.79 18.8217 9.89C18.8217 8.98333 19.0184 8.20667 19.4117 7.56C19.8117 6.91333 20.3551 6.41667 21.0417 6.07C21.7284 5.72333 22.5051 5.55 23.3717 5.55C23.8651 5.55 24.3017 5.60333 24.6817 5.71C25.0684 5.81667 25.3917 5.94 25.6517 6.08C25.9117 6.21333 26.0917 6.32333 26.1917 6.41L24.9817 8.17C24.9351 8.11667 24.8451 8.04333 24.7117 7.95C24.5784 7.85667 24.4017 7.77 24.1817 7.69C23.9684 7.61 23.7117 7.57 23.4117 7.57C23.0451 7.57 22.6951 7.66667 22.3617 7.86C22.0351 8.05333 21.7684 8.32333 21.5617 8.67C21.3551 9.01667 21.2517 9.42333 21.2517 9.89C21.2517 10.3567 21.3551 10.7667 21.5617 11.12C21.7684 11.4667 22.0351 11.7367 22.3617 11.93C22.6951 12.1233 23.0451 12.22 23.4117 12.22ZM32.9292 5.55C33.4892 5.55 34.0359 5.66667 34.5692 5.9C35.1026 6.12667 35.5392 6.49 35.8792 6.99C36.2259 7.49 36.3992 8.14333 36.3992 8.95V14H33.8492V9.39C33.8492 8.71667 33.6959 8.21667 33.3892 7.89C33.0892 7.56333 32.6859 7.4 32.1792 7.4C31.8392 7.4 31.5126 7.49333 31.1992 7.68C30.8926 7.86 30.6392 8.11333 30.4392 8.44C30.2459 8.76 30.1492 9.12667 30.1492 9.54V14H27.5992V0.24H30.1492V7.1C30.2159 6.87333 30.3792 6.64 30.6392 6.4C30.8992 6.16 31.2292 5.96 31.6292 5.8C32.0292 5.63333 32.4626 5.55 32.9292 5.55ZM42.5905 0.799999H45.1005L50.1805 14H47.5205L46.4905 11.15H41.2105L40.1605 14H37.4905L42.5905 0.799999ZM42.0305 8.94H45.6705L43.8605 3.82H43.8305L42.0305 8.94ZM53.9392 14H51.3892V0.24H53.9392V14ZM60.2558 18.39C59.6558 18.39 59.0791 18.3333 58.5258 18.22C57.9791 18.1067 57.4824 17.93 57.0358 17.69C56.5891 17.45 56.2158 17.1367 55.9158 16.75L57.4558 15.19C57.5958 15.37 57.7758 15.55 57.9958 15.73C58.2224 15.9167 58.5091 16.07 58.8558 16.19C59.2024 16.3167 59.6358 16.38 60.1558 16.38C60.6491 16.38 61.0724 16.2833 61.4258 16.09C61.7858 15.9033 62.0624 15.6367 62.2558 15.29C62.4558 14.9433 62.5558 14.54 62.5558 14.08V13.85H65.0458V14.23C65.0458 15.1367 64.8324 15.9 64.4058 16.52C63.9791 17.14 63.4058 17.6067 62.6858 17.92C61.9658 18.2333 61.1558 18.39 60.2558 18.39ZM62.5558 14V12.57C62.4958 12.7167 62.3424 12.9233 62.0958 13.19C61.8491 13.4567 61.5158 13.7 61.0958 13.92C60.6824 14.1333 60.1958 14.24 59.6358 14.24C58.8491 14.24 58.1524 14.0533 57.5458 13.68C56.9391 13.3 56.4624 12.7833 56.1158 12.13C55.7758 11.47 55.6058 10.7267 55.6058 9.9C55.6058 9.07333 55.7758 8.33333 56.1158 7.68C56.4624 7.02 56.9391 6.5 57.5458 6.12C58.1524 5.74 58.8491 5.55 59.6358 5.55C60.1824 5.55 60.6558 5.64333 61.0558 5.83C61.4624 6.01 61.7891 6.22333 62.0358 6.47C62.2891 6.71 62.4524 6.92667 62.5258 7.12V5.79H65.0458V14H62.5558ZM58.0958 9.9C58.0958 10.36 58.1991 10.7667 58.4058 11.12C58.6124 11.4667 58.8858 11.7367 59.2258 11.93C59.5658 12.1233 59.9358 12.22 60.3358 12.22C60.7558 12.22 61.1291 12.1233 61.4558 11.93C61.7824 11.73 62.0391 11.4567 62.2258 11.11C62.4191 10.7567 62.5158 10.3533 62.5158 9.9C62.5158 9.44667 62.4191 9.04667 62.2258 8.7C62.0391 8.34667 61.7824 8.07 61.4558 7.87C61.1291 7.67 60.7558 7.57 60.3358 7.57C59.9358 7.57 59.5658 7.67 59.2258 7.87C58.8858 8.06333 58.6124 8.33667 58.4058 8.69C58.1991 9.03667 58.0958 9.44 58.0958 9.9ZM71.2 14.24C70.3267 14.24 69.5467 14.0533 68.86 13.68C68.18 13.3067 67.6467 12.7967 67.26 12.15C66.8733 11.4967 66.68 10.7533 66.68 9.92C66.68 9.08667 66.8733 8.34333 67.26 7.69C67.6467 7.03 68.18 6.51 68.86 6.13C69.5467 5.74333 70.3267 5.55 71.2 5.55C72.08 5.55 72.8567 5.74333 73.53 6.13C74.2033 6.51 74.73 7.03 75.11 7.69C75.49 8.34333 75.68 9.08667 75.68 9.92C75.68 10.7533 75.49 11.4967 75.11 12.15C74.73 12.7967 74.2033 13.3067 73.53 13.68C72.8567 14.0533 72.08 14.24 71.2 14.24ZM71.2 12.13C71.62 12.13 71.9833 12.0367 72.29 11.85C72.6033 11.6567 72.8433 11.3933 73.01 11.06C73.1833 10.72 73.27 10.3367 73.27 9.91C73.27 9.48333 73.1833 9.1 73.01 8.76C72.8433 8.42 72.6033 8.15333 72.29 7.96C71.9833 7.76 71.62 7.66 71.2 7.66C70.78 7.66 70.4133 7.76 70.1 7.96C69.7933 8.15333 69.5533 8.42 69.38 8.76C69.2067 9.1 69.12 9.48333 69.12 9.91C69.12 10.3367 69.2067 10.72 69.38 11.06C69.5533 11.3933 69.7933 11.6567 70.1 11.85C70.4133 12.0367 70.78 12.13 71.2 12.13ZM81.9448 0.559999C82.7382 0.559999 83.4282 0.649999 84.0148 0.83C84.6082 1.00333 85.0782 1.19 85.4248 1.39C85.7782 1.59 85.9915 1.72 86.0648 1.78L84.8448 3.81C84.7382 3.72333 84.5548 3.60333 84.2948 3.45C84.0415 3.29 83.7348 3.15 83.3748 3.03C83.0148 2.90333 82.6248 2.84 82.2048 2.84C81.5982 2.84 81.1115 2.95667 80.7448 3.19C80.3848 3.41667 80.2048 3.74667 80.2048 4.18C80.2048 4.47333 80.3015 4.73667 80.4948 4.97C80.6882 5.19667 80.9715 5.41 81.3448 5.61C81.7248 5.81 82.1882 6.02 82.7348 6.24C83.2148 6.42667 83.6715 6.64333 84.1048 6.89C84.5448 7.13667 84.9348 7.42667 85.2748 7.76C85.6215 8.09333 85.8948 8.48 86.0948 8.92C86.3015 9.36 86.4048 9.86333 86.4048 10.43C86.4048 11.0633 86.2748 11.6167 86.0148 12.09C85.7615 12.5633 85.4082 12.96 84.9548 13.28C84.5082 13.6 83.9948 13.84 83.4148 14C82.8348 14.16 82.2248 14.24 81.5848 14.24C80.7182 14.24 79.9382 14.14 79.2448 13.94C78.5582 13.7333 78.0015 13.5133 77.5748 13.28C77.1482 13.0467 76.8982 12.8967 76.8248 12.83L78.1048 10.72C78.1848 10.78 78.3348 10.8767 78.5548 11.01C78.7815 11.1433 79.0548 11.28 79.3748 11.42C79.7015 11.56 80.0548 11.68 80.4348 11.78C80.8215 11.88 81.2148 11.93 81.6148 11.93C82.3348 11.93 82.8782 11.78 83.2448 11.48C83.6115 11.18 83.7948 10.79 83.7948 10.31C83.7948 9.95 83.6782 9.63333 83.4448 9.36C83.2115 9.08667 82.8815 8.83667 82.4548 8.61C82.0348 8.37667 81.5315 8.14 80.9448 7.9C80.3582 7.65333 79.8115 7.36667 79.3048 7.04C78.8048 6.70667 78.4015 6.3 78.0948 5.82C77.7882 5.33333 77.6348 4.73667 77.6348 4.03C77.6348 3.33 77.8315 2.72 78.2248 2.2C78.6248 1.68 79.1515 1.27667 79.8048 0.989999C80.4648 0.703332 81.1782 0.559999 81.9448 0.559999ZM90.8619 18.16H88.3419V5.79H90.8919V7.12C90.9719 6.92667 91.1452 6.70667 91.4119 6.46C91.6785 6.21333 92.0252 6 92.4519 5.82C92.8852 5.64 93.3785 5.55 93.9319 5.55C94.7119 5.55 95.3919 5.74 95.9719 6.12C96.5519 6.5 96.9985 7.02 97.3119 7.68C97.6319 8.33333 97.7919 9.07333 97.7919 9.9C97.7919 10.7267 97.6252 11.47 97.2919 12.13C96.9585 12.7833 96.4952 13.3 95.9019 13.68C95.3085 14.0533 94.6185 14.24 93.8319 14.24C93.2385 14.24 92.7285 14.1333 92.3019 13.92C91.8752 13.7067 91.5419 13.4667 91.3019 13.2C91.0619 12.9333 90.9152 12.7233 90.8619 12.57V18.16ZM95.3019 9.9C95.3019 9.44 95.2019 9.03667 95.0019 8.69C94.8085 8.33667 94.5485 8.06333 94.2219 7.87C93.8952 7.67 93.5319 7.57 93.1319 7.57C92.7119 7.57 92.3319 7.67 91.9919 7.87C91.6519 8.07 91.3819 8.34667 91.1819 8.7C90.9885 9.04667 90.8919 9.44667 90.8919 9.9C90.8919 10.3533 90.9885 10.7567 91.1819 11.11C91.3819 11.4567 91.6519 11.73 91.9919 11.93C92.3319 12.1233 92.7119 12.22 93.1319 12.22C93.5319 12.22 93.8952 12.1233 94.2219 11.93C94.5485 11.7367 94.8085 11.4667 95.0019 11.12C95.2019 10.7667 95.3019 10.36 95.3019 9.9ZM103.466 14.24C102.592 14.24 101.812 14.0533 101.126 13.68C100.446 13.3067 99.9123 12.7967 99.5256 12.15C99.139 11.4967 98.9456 10.7533 98.9456 9.92C98.9456 9.08667 99.139 8.34333 99.5256 7.69C99.9123 7.03 100.446 6.51 101.126 6.13C101.812 5.74333 102.592 5.55 103.466 5.55C104.346 5.55 105.122 5.74333 105.796 6.13C106.469 6.51 106.996 7.03 107.376 7.69C107.756 8.34333 107.946 9.08667 107.946 9.92C107.946 10.7533 107.756 11.4967 107.376 12.15C106.996 12.7967 106.469 13.3067 105.796 13.68C105.122 14.0533 104.346 14.24 103.466 14.24ZM103.466 12.13C103.886 12.13 104.249 12.0367 104.556 11.85C104.869 11.6567 105.109 11.3933 105.276 11.06C105.449 10.72 105.536 10.3367 105.536 9.91C105.536 9.48333 105.449 9.1 105.276 8.76C105.109 8.42 104.869 8.15333 104.556 7.96C104.249 7.76 103.886 7.66 103.466 7.66C103.046 7.66 102.679 7.76 102.366 7.96C102.059 8.15333 101.819 8.42 101.646 8.76C101.472 9.1 101.386 9.48333 101.386 9.91C101.386 10.3367 101.472 10.72 101.646 11.06C101.819 11.3933 102.059 11.6567 102.366 11.85C102.679 12.0367 103.046 12.13 103.466 12.13ZM108.95 5.79H110.43V2.42H112.95V5.79H114.89V7.9H112.95V10.87C112.95 11.2633 113.014 11.57 113.14 11.79C113.267 12.0033 113.467 12.11 113.74 12.11C113.947 12.11 114.117 12.07 114.25 11.99C114.384 11.9033 114.464 11.8433 114.49 11.81L115.39 13.63C115.35 13.67 115.22 13.74 115 13.84C114.787 13.94 114.51 14.03 114.17 14.11C113.837 14.1967 113.46 14.24 113.04 14.24C112.287 14.24 111.664 14.0233 111.17 13.59C110.677 13.15 110.43 12.47 110.43 11.55V7.9H108.95V5.79ZM119.232 14H116.682V0.24H119.232V14ZM121.529 14V5.79H124.059V14H121.529ZM122.829 3.67C122.409 3.67 122.052 3.52333 121.759 3.23C121.472 2.93667 121.329 2.58667 121.329 2.18C121.329 1.77333 121.475 1.42 121.769 1.12C122.062 0.819999 122.415 0.669999 122.829 0.669999C123.102 0.669999 123.352 0.739999 123.579 0.88C123.805 1.01333 123.989 1.19333 124.129 1.42C124.269 1.64667 124.339 1.9 124.339 2.18C124.339 2.58667 124.189 2.93667 123.889 3.23C123.595 3.52333 123.242 3.67 122.829 3.67ZM130.529 18.39C129.929 18.39 129.353 18.3333 128.799 18.22C128.253 18.1067 127.756 17.93 127.309 17.69C126.863 17.45 126.489 17.1367 126.189 16.75L127.729 15.19C127.869 15.37 128.049 15.55 128.269 15.73C128.496 15.9167 128.783 16.07 129.129 16.19C129.476 16.3167 129.909 16.38 130.429 16.38C130.923 16.38 131.346 16.2833 131.699 16.09C132.059 15.9033 132.336 15.6367 132.529 15.29C132.729 14.9433 132.829 14.54 132.829 14.08V13.85H135.319V14.23C135.319 15.1367 135.106 15.9 134.679 16.52C134.253 17.14 133.679 17.6067 132.959 17.92C132.239 18.2333 131.429 18.39 130.529 18.39ZM132.829 14V12.57C132.769 12.7167 132.616 12.9233 132.369 13.19C132.123 13.4567 131.789 13.7 131.369 13.92C130.956 14.1333 130.469 14.24 129.909 14.24C129.123 14.24 128.426 14.0533 127.819 13.68C127.213 13.3 126.736 12.7833 126.389 12.13C126.049 11.47 125.879 10.7267 125.879 9.9C125.879 9.07333 126.049 8.33333 126.389 7.68C126.736 7.02 127.213 6.5 127.819 6.12C128.426 5.74 129.123 5.55 129.909 5.55C130.456 5.55 130.929 5.64333 131.329 5.83C131.736 6.01 132.063 6.22333 132.309 6.47C132.563 6.71 132.726 6.92667 132.799 7.12V5.79H135.319V14H132.829ZM128.369 9.9C128.369 10.36 128.473 10.7667 128.679 11.12C128.886 11.4667 129.159 11.7367 129.499 11.93C129.839 12.1233 130.209 12.22 130.609 12.22C131.029 12.22 131.403 12.1233 131.729 11.93C132.056 11.73 132.313 11.4567 132.499 11.11C132.693 10.7567 132.789 10.3533 132.789 9.9C132.789 9.44667 132.693 9.04667 132.499 8.7C132.313 8.34667 132.056 8.07 131.729 7.87C131.403 7.67 131.029 7.57 130.609 7.57C130.209 7.57 129.839 7.67 129.499 7.87C129.159 8.06333 128.886 8.33667 128.679 8.69C128.473 9.03667 128.369 9.44 128.369 9.9ZM142.753 5.55C143.313 5.55 143.86 5.66667 144.393 5.9C144.927 6.12667 145.363 6.49 145.703 6.99C146.05 7.49 146.223 8.14333 146.223 8.95V14H143.673V9.39C143.673 8.71667 143.52 8.21667 143.213 7.89C142.913 7.56333 142.51 7.4 142.003 7.4C141.663 7.4 141.337 7.49333 141.023 7.68C140.717 7.86 140.463 8.11333 140.263 8.44C140.07 8.76 139.973 9.12667 139.973 9.54V14H137.423V0.24H139.973V7.1C140.04 6.87333 140.203 6.64 140.463 6.4C140.723 6.16 141.053 5.96 141.453 5.8C141.853 5.63333 142.287 5.55 142.753 5.55ZM147.525 5.79H149.005V2.42H151.525V5.79H153.465V7.9H151.525V10.87C151.525 11.2633 151.588 11.57 151.715 11.79C151.841 12.0033 152.041 12.11 152.315 12.11C152.521 12.11 152.691 12.07 152.825 11.99C152.958 11.9033 153.038 11.8433 153.065 11.81L153.965 13.63C153.925 13.67 153.795 13.74 153.575 13.84C153.361 13.94 153.085 14.03 152.745 14.11C152.411 14.1967 152.035 14.24 151.615 14.24C150.861 14.24 150.238 14.0233 149.745 13.59C149.251 13.15 149.005 12.47 149.005 11.55V7.9H147.525V5.79ZM157.206 14.24C156.76 14.24 156.376 14.08 156.056 13.76C155.736 13.44 155.576 13.0567 155.576 12.61C155.576 12.15 155.736 11.76 156.056 11.44C156.376 11.12 156.76 10.96 157.206 10.96C157.666 10.96 158.053 11.12 158.366 11.44C158.686 11.76 158.846 12.15 158.846 12.61C158.846 13.0567 158.686 13.44 158.366 13.76C158.053 14.08 157.666 14.24 157.206 14.24Z" fill="#999898"/>
</svg>
